Coordinates
version=1
nRows=49
nColumns=12
inDegrees=yes

Units are S.I. units (second, meters, Newtons, ...)
Angles are in degrees

endheader
time	SC_y	SC_z	SC_x	AC_y	AC_z	AC_x	GH_y	GH_z	GH_yy	EL_x	PS_y
       0.0              -22.68         0.3565          14.04          47.02          -14.4          3.562          135.7          67.91          93.04          78.03          125.5
   0.03946              -22.68          0.359          14.04          47.02          -14.4          3.564          135.7           67.9          93.03          78.03          125.5
   0.07892              -22.68         0.3616          14.04          47.02          -14.4          3.567          135.7           67.9          93.02          78.02          125.5
    0.1184              -22.69         0.3644          14.04          47.02         -14.39          3.569          135.7          67.89          93.01          78.02          125.5
    0.1578              -22.69         0.3674          14.04          47.02         -14.39          3.572          135.7          67.88           93.0          78.01          125.4
    0.1973              -22.69         0.3705          14.04          47.02         -14.39          3.575          135.7          67.88          92.98           78.0          125.4
    0.2368               -22.7         0.3739          14.04          47.02         -14.39          3.577          135.7          67.87          92.97           78.0          125.4
    0.2762               -22.7         0.3776          14.04          47.02         -14.39          3.581          135.7          67.86          92.96          77.99          125.4
    0.3157               -22.7         0.3814          14.04          47.02         -14.38          3.584          135.7          67.85          92.94          77.98          125.4
    0.3551              -22.71         0.3856          14.04          47.02         -14.38          3.588          135.7          67.84          92.92          77.97          125.3
    0.3946              -22.71         0.3901          14.04          47.02         -14.38          3.592          135.7          67.83          92.91          77.97          125.3
    0.4341              -22.72         0.3949          14.04          47.02         -14.38          3.596          135.8          67.82          92.89          77.96          125.3
    0.4735              -22.72         0.4001          14.03          47.02         -14.37            3.6          135.8          67.81          92.87          77.95          125.2
     0.513              -22.73         0.4057          14.03          47.02         -14.37          3.605          135.8          67.79          92.84          77.93          125.2
    0.5524              -22.74         0.4118          14.03          47.02         -14.37           3.61          135.8          67.78          92.82          77.92          125.2
    0.5919              -22.74         0.4184          14.03          47.02         -14.37          3.616          135.8          67.76          92.79          77.91          125.1
    0.6314              -22.75         0.4255          14.03          47.01         -14.36          3.622          135.8          67.75          92.77          77.89          125.1
    0.6708              -22.76         0.4333          14.03          47.01         -14.36          3.629          135.8          67.73          92.74          77.88          125.0
    0.7103              -22.77         0.4418          14.03          47.01         -14.35          3.636          135.8          67.71           92.7          77.86          125.0
    0.7497              -22.78         0.4511          14.03          47.01         -14.35          3.645          135.8          67.69          92.66          77.84          124.9
    0.7892              -22.79         0.4614          14.03          47.01         -14.34          3.653          135.8          67.66          92.62          77.82          124.8
    0.8287               -22.8         0.4726          14.03          47.01         -14.34          3.663          135.8          67.63          92.58           77.8          124.8
    0.8681              -22.81         0.4851          14.03          47.01         -14.33          3.674          135.8          67.61          92.53          77.77          124.7
    0.9076              -22.83         0.4988          14.03          47.01         -14.32          3.686          135.8          67.57          92.48          77.75          124.6
     0.947              -22.84         0.5142          14.03          47.01         -14.31          3.699          135.8          67.54          92.41          77.72          124.5
    0.9865              -22.86         0.5313          14.03          47.01         -14.31          3.714          135.9           67.5          92.35          77.68          124.4
     1.026              -22.88         0.5504          14.02           47.0          -14.3          3.731          135.9          67.45          92.27          77.64          124.2
     1.065              -22.91         0.5719          14.02           47.0         -14.28          3.749          135.9           67.4          92.19           77.6          124.1
     1.105              -22.93         0.5963          14.02           47.0         -14.27          3.771          135.9          67.34          92.09          77.55          123.9
     1.144              -22.96         0.6239          14.02           47.0         -14.26          3.794          135.9          67.28          91.98           77.5          123.8
     1.184              -22.99         0.6555          14.02           47.0         -14.24          3.822          136.0           67.2          91.85          77.43          123.5
     1.223              -23.03         0.6917          14.01          46.99         -14.22          3.853          136.0          67.12          91.71          77.36          123.3
     1.263              -23.08         0.7335          14.01          46.99          -14.2           3.89          136.0          67.02          91.55          77.27          123.0
     1.302              -23.13          0.782          14.01          46.99         -14.17          3.932          136.1           66.9          91.35          77.18          122.7
     1.342              -23.19         0.8388           14.0          46.98         -14.14          3.981          136.1          66.77          91.13          77.06          122.3
     1.381              -23.26         0.9058           14.0          46.98         -14.11          4.039          136.1          66.61          90.86          76.93          121.9
     1.421              -23.34         0.9854          13.99          46.97         -14.07          4.108          136.2          66.42          90.55          76.77          121.4
      1.46              -23.44          1.081          13.99          46.96         -14.01          4.191          136.3          66.19          90.17          76.58          120.7
     1.499              -23.56          1.196          13.98          46.95         -13.95          4.291          136.4          65.92          89.71          76.34          120.0
     1.539              -23.71          1.337          13.97          46.94         -13.88          4.414          136.5          65.59          89.15          76.06          119.0
     1.578               -23.9          1.511          13.96          46.93         -13.79          4.565          136.6          65.17          88.46          75.71          117.9
     1.618              -24.13          1.728          13.94          46.91         -13.67          4.753          136.8          64.66           87.6          75.27          116.5
     1.657              -24.41          2.002          13.92          46.89         -13.53           4.99          137.0          64.01          86.52          74.72          114.6
     1.697              -24.78          2.349           13.9          46.86         -13.34          5.292          137.3          63.19          85.14          74.02          112.4
     1.736              -25.25          2.794          13.87          46.83         -13.11          5.678          137.6          62.14          83.38          73.13          109.4
     1.776              -25.85          3.365          13.83          46.78         -12.81          6.174          138.1          60.78          81.12          71.98          105.6
     1.815              -26.62          4.094          13.78          46.73         -12.42          6.807          138.6          59.06          78.23          70.52          100.8
     1.855              -27.59          5.011          13.72          46.65         -11.94          7.603          139.3          56.89          74.59          68.67          94.76
     1.894              -28.77          6.129          13.64          46.56         -11.35          8.573          140.2          54.24          70.16          66.42          87.38
